<svg xmlns="http://www.w3.org/2000/svg" xmlns:xlink="http://www.w3.org/1999/xlink" viewBox="0 0 4288 3039">
  <defs>
    <style>
      .cls-1 {
        isolation: isolate;
      }

      .cls-2 {
        fill-rule: evenodd;
      }
    </style>
  </defs>
  <g id="Shoe_Image" data-name="Shoe Image">
    <image id="Shoe_Image-2" data-name="Shoe Image" width="4288" height="3039" xlink:href="airforce1.png"/>
  </g>
  <g id="Laces" class="cls-1">
    <path class="cls-2" d="M1980,1472c.33,2,12.67,8,13,10,13.33,5.33,14.67,6.67,28,12,43,9.78,110.65-6.13,93-57-6.25-18-39.84-31.88-50-48,8.48-13.74,23.35-21.47,33-30,8.85-7.82,28.7-26.75,40-30,4.71-1.36,26.8,8.08,32,10,11.33,0,16.67,7,28,7,2.67,2,17.33,2,20,4,17.59.92,27.47-2.44,35-5,1.14-.39,11.3,2.63,16-1,32.07-24.76,16.87-34.39,9-55,3-9.33,2.6-14.92,3-24,12.2-4.81,36.51-12.58,47-20,5.33-7,18.67-12,24-19,29.27-19.3,53.65-27,83-38,19.69-7.37,48.9-28.38,80-22,33.17,6.81,77.24,27.12,99,42,7.67,1.67,16.33,8.33,24,10,14.88,5.6,54.27,21.24,65,38-.67,0-18.33,1-19,1-15.78,1.48-28.28-.1-43,4-65.74,18.3-119.84,54.68-155,76-26.74,16.21-35.91,19-57,35,1.72,4.88,14.06,23.64,12,22-15.14-12-30.05-9.27-40-3-41.34,26-101.29,27.77-137,59-44.72,31.89-92.94,79-141,107-47.45,27.66-111,36.32-158,65-47.5,29-78.24,71.61-129,99-7,2.67-14,9.33-21,12-2-1.33-3-5.67-5-7-8.7,2.71-21.38,11.47-31,15-5,0-28,8-33,8-40.84,9.62-52,15.59-87,26-6.33.67-31.67,12.33-38,13-14.34,5.47-20.06,5.78-30,12-1.28,6.93,2.43,16.23-2,11-15.87.31-27,5.2-40,10-47.45,17.5-98.21,34.93-150,48a339.64,339.64,0,0,1-58,9,143.51,143.51,0,0,1-28-2l-32-4c-24.49-9.78-69.93-40.7-46-74,36.64-12.23,75.7-27.47,110-40,14.26-5.21,17.67-7.46,29-12,7.3,9.88,12.13,23.07,20,28,6-1.67,12-9.33,18-11,17.79,6.49,16.94,30.93,55,32,27.08-2.38,51.12-5.07,58-33,2.89-11.74-5.26-23.12-14-39-3.59-4.36-4-7.06-8-12,8.69-9.67,19.45-17,28-26,16.67-13,27.59-22,51-35,27.3,14.55,40.85,31.64,76,43,9.12,3,16.39,2.26,44-4,12-8.27,15.77-11.31,21-21,4.19-7.77-9.13-29.47-14-33-6-2.33-9.79-4.43-13-9-4.33-5.33-14.67-18.67-19-24,10-3.54,19.86-4.58,22-8,16.66-6,26.34-11,43-17,14-6.67,26.08-19.45,40-23,6.86,3.75,19.19,13.42,29,13,27.66,10.42,89.71,13.1,108-24-2.64-22.31-39.82-57.13-56-68,27.87-8.68,38.51-17.38,69-25,12.72,2.07,18.87,8.58,21,14C1965.94,1466.44,1966.71,1471.21,1980,1472Z"/>
  </g>
  <g id="Sole" class="cls-1">
    <path class="cls-2" d="M3304,2568c-.33,2-.67,4-1,6l-7,8c-10.13.24-26.31,1.78-32-3-3.27-2.74-2.08-7.33-6-10h-10c-4.5,10.92-19.56,22.44-38,14-9.78-5.4-6.91-13-24-13-.36,6.41-1.61,10.51-6,13-21.38,8.37-38.05-11-52-6-11.05,6.75-26.07,15.73-43,5-.33-2.67-.67-5.33-1-8h-20c-.33,2-.67,4-1,6l-5,6-28-1-6-5v-6h-22v12l-36-1c-.33-1-.67-2-1-3-.33-2.67-.67-5.33-1-8l-20,1c-1.62,4.53-2,9.53-6,12h-28l-6-5v-6h-22c-.33,3.33-.67,6.67-1,10l-3,1h-28l-6-5v-6h-22c-.5,5.64-1.79,7.58-4,11-10.2,3.26-26.18,4.59-35-1-1-4.77-1.32-6.82-5-9l-18-1c-.33,2.67-.67,5.33-1,8l-3,5c-12.35.67-29.73,3.95-35-5-.33-2-.67-4-1-6h-18c-.33,2-.67,4-1,6l-7,8c-12.64.41-25.71.58-33-4-.33-2.67-.67-5.33-1-8h-18v8l-5,3h-35c-.33-1-.67-2-1-3-.33-2-.67-4-1-6l-16,1c-2.09,4.38-3.54,7.8-8,10-5.84,2.64-21.42,4.9-28,2l-6-5v-6h-18c-.33,2-.67,4-1,6-5.81,12.57-29.54,8.53-38,2-1.24-4.05-1.61-5.06-5-7h-12c-3.27,6.59-6.58,11.31-6,19l-167,2c-31.49-.31-71.11-4-103,2l-30-2c-18.38-.93-32.72.72-50,4h-64c-29.29,5.51-69.2,2-102,2-57,0-120.29,4-170-5-1.62-4.53-2-9.53-6-12l-16-1c-.33,3.33-.67,6.67-1,10l-3,4-26-1-11-11c-15.69-.48-17.86,4.65-25,12l-28-1c-1.61-4.14-2.26-7.74-6-10l-20-1c-.33,3.33-.67,6.67-1,10l-3,1c-8.69,3.69-24.06.09-32-1-.06-5.95-.21-6.82-4-9h-16c-1.61,4.14-2.26,7.74-6,10-25.77,10.23-31.58-10.74-54-11-.33,3.33-.67,6.67-1,10l-3,1c-29.77,11.81-32.58-12.54-51-13l-3,1c-.33,1-.67,2-1,3-.33,2.67-.67,5.33-1,8h-34c-11.44-3.89-1.33-12-23-12l-3,1c-2,5-2.73,8.23-7,11l-29-3-4-5v-6h-20v10c-32.53.14-67.47,0-96-6l-32,2c-27.12,0-56.55-1.12-82-6l-40,2c-33.76-6.51-86.16-1.13-124-7-9-1.39-12.8,3.56-18,5l-58-2c-11.46-2.19-32.66-3.87-42-6l-22,2c-52.81-11.19-130.7-10.61-184-24-11.44,2-11.41,2-30,1-4-2-16-2-20-4-8.67-.33-17.33-5.67-26-6-2.33-5.33-8.16-4.06-15-8-7.38-7.6-18.82-6.76-29-12l-45-43-3-16-15-16q-.5-10-1-20l-10-18v-26c-5.21-21.48-6.14-50.33-2-72,4.2-22-2.75-43.61,4-62l9-14c2.19-7.79,2.71-10.82,2-17-1.63-14.11,12.76-27.85,20-34,11-9.33,35.89,1.25,59,5,13.77,2.24,38.32,6.32,52,8s52,.31,66,3c10,0,32,1,42,1,51.09,7.37,82.65,6.95,143,9,18.66,0,43.34,2,62,2,43.66,2,84.34,2,128,4,20.33,0,40.67,1,61,1,64.9,4.37,108.88,1.11,179,4-9.8-.4,58.78,8.62,108,8,10.16,0,72.35-.43,89,0,72.41-8.16,104.56-4.75,169-6,21.66-1.33,61.34-4.67,83-6,11.33,1.33,50.67-3.33,62-2,6.33-1.1,38.54-2.3,49-2,40.4-.53,115.73-4.6,147-7,13.67.67,55.33-4.67,69-4,21.88-4.17,66.77-4.74,87-5,18.27,1,67.3-5.43,68-18,32.74-3,49.29-10.26,75-15,32.17-9.12,79.86-16.29,112-22,46.76-12.4,58.37-9.08,86-11,32-2.23,71.36-12.11,95-15,37.61-7,48.64-7.28,72-10,25.3-4,71.26-8,80-8,45.45-6.22,85.84-6.32,110-7,13.45-.11,28.29-.26,40-1,7.35-.47,42-6.11,54-7,15.36-1.14,29.3,1.54,46,1,23.16-.75,73.44-2.58,93-4,15.78-1.15,82.45-1.86,95-3,32.75-1.57,51.27-5.35,93-10,31.37-3.5,65.57-6.53,98-10,28.18-3.14,73.95-5.83,103-8,35.58-3.43,80-5.08,127-9,29.77-2.52,58.5-3.4,90-5,9.33.67,84.67-4.67,94-4,29.29-.38,39.76-.17,48-5,22.58,26.53,16,50.33,18,54,5,9.21,3.52,13.22,8,19a1568.69,1568.69,0,0,1,9,170v28c2,6.19,12.49,10.88,8,24l-8,8c-7.71,21.52,13.28,62.09,14,78l-6,14q-.49,14-1,28l-12,13q-2.51,11.51-5,23c-3.13,7-12.06,7.87-17,13-8.21,8.51-6.62,23.41-18,29-53.31,26.21-154.7,30.07-226,30-38.44,0-135.35,13.76-157,1-18.88,18.23-46.35-.61-59,1-1.24,4.05-1.61,5.06-5,7C3332.92,2589.16,3322.19,2568.75,3304,2568Z"/>
  </g>
  <g id="Panels" class="cls-1">
    <path class="cls-2" d="M2683,1258c16.79-1.62,11.17-2.47,20.83.56,32.79,10.25,62.26,35.23,87.17,48.44,90.81,48.15,174.82,102.58,276,138,42.67,14.94,78.07,20,128,28,18.66,0,40.34,1,59,1h46c27.8-2.64,53.07-6.83,73-9,13.07-1.42,33.11-11.11,51-7,16.4,3.76,31.3,22,39,30,13.9,14.4,24.36,26.2,43,38,13.14,8.31,33.1,11.5,48,18-104.88,15.8-212.89,40.86-314,60-15.33,3.49-29.67,7.17-45,10-24.42,7.12-45.41,9.12-73,15-8,4-20,3-28,7-15.11,3.61-29.17,5.39-42,8-11.82,3-22.43,4.09-34,6-32.17,7.13-72.58,14.51-106,22-13.33.67-27.67,5.33-41,6-47.9,12.21-105,20.14-157,26-44.78-41.1-91.05-78-134-121-22.79-22.79-45.62-49.94-67-74l-16-28c-27.07-32.16-45-72.37-70-107,.33-1,.67-2,1-3,13.49-4,20.25-16,32-21,31.78-13.42,55.63-32.61,84-49,28.77-16.62,63-29,96-40C2651.33,1258.67,2670.66,1258.06,2683,1258Z"/>
    <path class="cls-2" d="M2947,2079c3.4-34.62-9.3-50.13-18-75-23.26-66.5-42.26-118-82.25-168.64-4.3-5.45-8.48-6.92-9.75-8.36.33-1.33,11.67-3.67,12-5,128.24-37.71,236-61.06,364-96,33.09-9,69.15-18.33,104-29,25.62-7.84,42.26-12.34,70-19,4.33-2.67,20.67-5.33,25-8,24.6-9.79,56.44-13.14,80-21,67.81-22.63,144.68-32.85,210-54,23.18,19.83,34.08,50.73,51,74,10.33,12,17.67,30,28,42,6.21,27.75,12.38,39.15,15,57,7.21,49.12,7.44,59.34,14,107,0,9.33,4,57.67,4,67,3.67,18.82.06,80.48-2,96-18.16,7.71-23.28,3-46,4-45,3.33-69,2.67-114,6-24.33,0-70.46,3.2-97,5-95.71,6.63-103.62,8.1-150,11s-145,12.9-211,22c-32.12,4.43-96.47,2.91-125,5-50.24,3.68-105.4,5.12-143,3C2920.39,2093.68,2936.69,2086.77,2947,2079Z"/>
    <path class="cls-2" d="M1786,1737c18.64-9.25,20-9.89,24-10,4.5,5.57,16.44,35.78,21,42,7.42,9.47,16.52,25.16,26,36,8.73,10,19.12,19.1,29,28,20.5,18.46,26,20,48,37,11.67,6,36.9,28.46,48,37,11.92,8.71,25.48,19.24,37,29,19.09,16.16,27.38,24.74,46,44,10.79,11.16,24.73,30.15,36,46,5.33,5.33,7.67,11.67,13,17,9.33,17,23.67,33,33,50,9.26,16.47,55,82,54,100-1.67,1.67-7.33,4.33-9,6-32.94,13.21-63.88,6.19-100,10-53.17,5.61-115.62,8-174,13-23.4,2-51.43.18-72,1-26,0-47,3-73,3-22.77,2.58-52.27,1.84-77,4-16,1.39-39.71,4.7-59,4-21.82-.8-43.9,1.22-62,0-7-.48-30.09-.85-40,1-24.66,2.67-38.34,2.33-63,5-14.67-.67-34.33-1.33-49-2-45.54,4-99.55,3.77-141-4-38.06-7.14-80.34.64-118-4l-192-4-212-8c-42.08-4.51-92-4.58-134-9-11.33,0-29.67-2-41-2a639.31,639.31,0,0,1-69-11c-10.85-2.32-20.93-2.85-30-5,19.43-46.31,43.79-113.2,77-147,8.51-8.66,24.67-37.77,43-31l12,9,24,2c37.93,7.32,89.5,6.66,129,15h41c34.32,4.91,73.76,4.79,114,4,19.53-.67,27.67,1,81,1,40,0,59.64,1.34,95,0,51,1.14,92.34-2.47,143-4,49.11-4.15,118.34-8.65,164-21,12.67-.33,28.33-5.67,41-6,27.57-5,53.69-6.93,82-14,78.21-26.18,70.61-50.28,78-69-2.29-47.92-16.21-82.23-21-129,6.38-1,8.64-5.88,13-7a335,335,0,0,0,42-14c23.77-9.14,47.19-15,70-23C1737.4,1748.84,1762.79,1746.8,1786,1737Z"/>
  </g>
  <g id="Middle" class="cls-1">
    <path class="cls-2" d="M2097,1823c26.61,60.36,69.34,87.36,142,102,68.84,13.87,164.87-2,219-13,84.66-17.19,159.53-33.19,241-53l43-11s86.62-19.28,94-21,29.4,32.7,37,46c23.93,41.86,39.53,86.78,58,137,7.38,20.08,25.17,49.52,14,70-17.13,14.24-42.32,19.42-70,21-71.11,1.12-57.64.9-116,5-78.35,5.51-162.48,13.44-236,29-38.87,8.23-80.32,6.45-116,14,5.46-.19-56.69,9.35-84,16-66.31,13.23-110.93,28.53-123,24,6.91,2.59-33.88-62.61-40-73-27.71-47.06-63.3-97.48-91-129-5.5-12.11-47.62-47-52-53,2.56,3.52-35.71-29.16-87-66-49.69-38.35-63.91-49.78-87-82-7.49-10.45-16.43-22.56-21-34-1.33-5-6.67-14-8-19,17.41-12.52,39.62-21,55-34,40.35-34.23,76.58-71.44,129-94,46.3-19.92,96.13-29.38,136-55,32.87-21.12,62.13-47.71,91-73l20-12c6.86-6,12.67-15.68,21-20,35.8-18.59,75.36-29.58,116-44,10.31-3.66,27.71-20,44-15,21.89,6.66,68,100.81,87,123,59.79,69.89,126,131.39,196,191-.86,4.53.12,3-3,5-58.87,11.73-118.65,21.44-174,23-92.88-3.41-98.76-5.81-128-19-5.33-3.33-13.67-6.67-19-10-12.27-9-26.53-24.59-33-39-21.89-50.75-16-89-16-89s11.62-70.23,11.28-82.29c-88.2,39.39-181.74,116.6-200.28,137.29C2052.73,1746,2102.12,1834.62,2097,1823Z"/>
  </g>
  <g id="Back" class="cls-1">
    <path class="cls-2" d="M3652,1181c4,.4,3.91.33,6,2,33.84,36,46.18,130.36,59,191,0,8.67,3,31.33,3,40,10,49,26.35,82,36,130,0,12.67,3,33.33,3,46,8,26,15,52,23,78,3,15.1,2.79,22,2,33-1,1.67-2,7.33-3,9-.67-.33-10.33-13.67-11-14-7.63-16.23-10.78-16.5-21-32-26.49-40.18-31.51-74.46-90-98a329.17,329.17,0,0,0-65-19c-20-1.67-21-1.33-41-3-70-19.78-79.14-46.17-104-71-7-6.33-12.18-11-29-17,1.33-2.33,3.77-4.85,30-16,50.24-10.21,133.48-104,163-159C3629,1251.13,3632.81,1208.13,3652,1181Z"/>
  </g>
  <g id="Top" class="cls-1">
    <path class="cls-2" d="M1230,1805c-1.36,5.49-2,7.42-2,13,1.49,12.87,10,22,21,33,8.33,8.33,16.62,13.25,31,20,63.18,22.14,148.71-12,195-26,16.34-4.94,26.84-6.79,40-13,11-5.18,67.19-22.59,73-22,6.94,11.64,6.25,28.24,10,44,10.74,45.17,24.93,91.11-14,121-35.65,27.37-83.82,30.22-136,40-12.67.67-31.33,5.33-44,6-107.94,21.12-235.16,24-364,24-34.66,0-72.4-1.86-104-2-23.8-.11-56.56,2.71-78,0-21.66,0-39.34-2-61-2-42.64-4.73-91.72-7.85-131-12-17.76-1.88-53.65.5-61-18,28-9.34,65.65-25,92-36,17-4.67,42-14.47,60-21,33.42-12.19,68.83-22.26,103-35,38.33-9,76.67-23.25,115-34,50.87-14.76,102-32.72,151-50C1159,1825.67,1197,1814.33,1230,1805Z"/>
  </g>
  <g id="Swoosh" class="cls-1">
    <path class="cls-2" d="M2352,1486c-14.58,85.54-28.46,138.36,13,195,42.07,57.48,170.86,54.56,259,37,151.78-20.82,293.63-49.2,268-42,203.4-41.77,507.29-105.17,540-111s108.35-28.68,168-17c20.54.45,127.74,41.19,95,50s-142.74,33.24-211,54c-89.13,23.82-149.48,39.66-224,61s-198.21,54.67-272,71c-55.11,15.75-146.58,40.38-170,47s-137.34,32-206,48l-102,21c-86.2,19.5-239.51,49.7-330,11-133.27-64.89-82-205-82-205s11.3-35,37-67C2220.67,1541.68,2358.33,1486,2352,1486Z"/>
  </g>
  <g id="Shadow_Image" data-name="Shadow Image">
    <image id="Shadow_Image-2" data-name="Shadow Image" width="4288" height="3039" xlink:href="airforce2.png"/>
  </g>
</svg>
